<?xml version="1.0" encoding="utf-8"?>
<!-- Generator: Adobe Illustrator 25.0.0, SVG Export Plug-In . SVG Version: 6.00 Build 0)  -->
<svg version="1.1" id="Layer_1" xmlns="http://www.w3.org/2000/svg" xmlns:xlink="http://www.w3.org/1999/xlink" x="0px" y="0px"
	 viewBox="0 0 427 404" style="enable-background:new 0 0 427 404;" xml:space="preserve">
<style type="text/css">
	.st0{fill:#ED7E94;}
	.st1{fill:#FF96A9;}
	.st2{fill:#00345E;}
	.st3{fill:#007199;}
	.st4{fill:#27AAE1;}
	.st5{fill:#004991;}
	.st6{fill:#EACCED;}
	.st7{fill:#F6DEF8;}
	.st8{fill:#F2F0FF;}
	.st9{fill:#DFDCF2;}
	.st10{fill:#7860DC;}
	.st11{fill:#E5649A;}
	.st12{fill:#DB4A87;}
	.st13{fill:#6750CC;}
</style>
<g>
	<path class="st0" d="M296.1,103.9c-1.8-3.6-8.1-2.4-8.1-2.4s0.2,2.7,0.5,7.1c2,0.8,4.2,1.1,6.3,1.4
		C295,106.4,296.1,103.9,296.1,103.9z"/>
	<path class="st1" d="M294.8,110c-2.2-0.2-4.4-0.6-6.3-1.4c0.2,2.3,0.4,5.1,0.6,8.3c0.7,9.3,11.8,10.2,7.7,2.6
		C295,116.3,294.6,112.8,294.8,110z"/>
	<path class="st0" d="M291.6,84.9c-7.8-2.4-15.8,8.6-9.1,15.9c3.1,3.4,7.7,5.1,11.9,5.6c-3.7-2.1-5.7-6-3.2-9.6
		c2.3-4.1,7.6-2.2,12.2-3.1c-0.9-2.7-1.8-4.9-1.8-4.9S299.5,87.3,291.6,84.9z"/>
	<path class="st1" d="M291.2,96.8c-2.5,3.6-0.5,7.5,3.2,9.6c4.9,0.6,9.3-0.2,10.5-1.8c1.2-1.8-0.1-6.9-1.4-10.8
		C298.8,94.6,293.5,92.7,291.2,96.8z"/>
	<path class="st2" d="M289.4,92.3c0,0,25.7,5.2,21.2-12.2s-39.2-15-38.7,11.1c0,0-19.6-5.7-18.5,14.7c0,0-37.4,10.7-26.2,41.7
		c11.1,31,55.1,41.9,62-30.7l-1.6-20.7c0,0-3.7-1.7-2.1-4.9C287,88.2,289.4,92.3,289.4,92.3z"/>
	<path class="st1" d="M300,121.5c2-1.2,3.8-2.8,5.1-4.7c-4.6-1.2-8.9-1.8-12.4-1.5c0,0-5.2,0.5-13.1,2.7
		C284.6,123.3,293.3,125.1,300,121.5z"/>
	<path class="st3" d="M217.8,171c1.7,4.9,8,20.7,21.5,32.6c0.4-1.5,1-3,1.7-4.5C231.4,191.2,223.6,181.5,217.8,171z"/>
	<path class="st3" d="M312.7,128.6c-4.1-1.2-4.8,3.3-6.1,7.3c6.4,0.7,10.3,2,10.3,2s19.7,14.1,38.1,16.3c0,0,9.5-6.4,20.2-15.5
		c-0.2-0.5-0.4-0.9-0.7-1.3c-5.1,4.3-10.7,7.7-17.3,9.5C341.3,150.9,328.6,132.6,312.7,128.6z"/>
	<path class="st4" d="M365.5,130.7c-5.4,3.7-10.3,6.5-12.9,7.5c0,0-27.3-16.2-47.6-21.4c-1.3,1.9-3.1,3.5-5.1,4.7
		c-6.6,3.7-15.3,1.9-20.4-3.5c-17.2,4.8-47,17.7-62.3,51.6c0,0,0.2,0.5,0.5,1.5c5.8,10.4,13.6,20.2,23.2,28.1
		c1.5-3.3,3.5-6.5,5.9-9.2c-5.3-6.1-9.9-13.3-11.6-20.7c0,0,1.2-1.9,3.5-4.8c7.6-13.1,19.8-24,34-25.4c0.3,0,0.9,0.2,1.6,0.5
		c13-4.3,24.4-4.4,32.1-3.5c1.3-4,2-8.5,6.1-7.3c15.9,4,28.6,22.3,44.5,18.3c6.7-1.7,12.2-5.2,17.3-9.5
		C372.5,133.9,369.5,131.2,365.5,130.7z"/>
	<path class="st2" d="M238.9,164.3c5.3-6.5,16.5-18,33.6-24.2c0.7-0.2,1.3-0.5,2-0.7c-0.7-0.3-1.2-0.5-1.6-0.5
		C258.8,140.4,246.5,151.3,238.9,164.3z"/>
	<path class="st0" d="M374.5,137.4c0.2,0.4,0.5,0.9,0.7,1.3c8.8-7.5,18.3-16.8,23.9-25.8c0,0,3.6,1.3,6-1.3c1.2-1.3,4.5-3.8,8.4-6
		c-5.1,0.7-10,1.7-14.2,5.4C390.7,119.7,383.4,129.9,374.5,137.4z"/>
	<path class="st1" d="M409,98.8c-6.6,1.8-7.5,3.5-7.6,3.8l0,0l0,0c0.1-0.2,0.4-1.5-1.9-2.6c-1.5-0.7-2-2.3-2.1-3.6
		c-0.2-1.3-0.9-2.5-2.1-3.1c-1.5-0.8-3.1-1.2-2.9,1c0.4,3.8,1.8,7.1,1.8,7.1s-2,2.6-0.2,5.3c1.3,1.9-15.4,15.3-28.4,24
		c4,0.6,7,3.2,9,6.8c8.9-7.5,16.2-17.7,24.8-26.3c4.1-3.7,9.1-4.7,14.2-5.4c3.8-2.1,8.2-4,11.9-4.5C432.9,100.4,416.2,96.8,409,98.8
		z"/>
	<path class="st0" d="M299.3,243.8c-7.9-3.7-16.4-2.9-16.4,17.6c0,23.6,3.1,44.5,7.8,62.6C288.3,296.9,291.2,269.4,299.3,243.8z"/>
	<path class="st5" d="M322,384.3c-2,0.5-4.1,0.8-6.1,0.7c7.5,12.4,13.3,19,13.3,19C326.4,398.7,324,392,322,384.3z"/>
	<path class="st1" d="M322,384.3c-12.2-47.3-9.3-130.7-9.3-130.7s-6.5-6.7-13.4-9.9c-8.1,25.6-11,53.1-8.6,80.2
		c6.9,26.9,17.1,47.5,25.3,61C317.9,385.1,320,384.8,322,384.3z"/>
	<path class="st0" d="M269.1,232.4c-5,1-8.7,2-8.7,2s-20.6,81.4-6.3,147.7c1.1,0.5,2.2,1,3.4,1.3
		C250.6,333.4,254.8,281.7,269.1,232.4z"/>
	<path class="st2" d="M260.5,404c0,0,0.1-0.9,0.2-2.6c-1.2-6-2.2-12-3-18.1c-1.2-0.3-2.4-0.7-3.4-1.3
		C255.8,389.6,257.9,397,260.5,404z"/>
	<path class="st5" d="M260.6,401.4c0.2-3.2,0.7-9.4,1.5-17.5c-1.5-0.1-3.1-0.3-4.5-0.6C258.5,389.4,259.5,395.4,260.6,401.4z"/>
	<path class="st1" d="M269.1,232.4c-14.3,49.3-18.5,101-11.5,151c1.4,0.4,3,0.6,4.5,0.6c3.3-34,12.7-102.9,35.6-140.9
		C307.5,226.7,283,229.6,269.1,232.4z"/>
	<path class="st6" d="M289.9,191.3c-0.2,0-0.3-0.1-0.3-0.1s-19.3-1.7-29.1,43.1c0,0,1.7,4,5.8,8.5c2.4-9.3,5.2-18.5,8.3-27.6
		C277.5,206.4,282.2,197.1,289.9,191.3z"/>
	<path class="st7" d="M289.9,191.3c-7.8,5.8-12.5,15.1-15.4,24c-3.1,9.1-5.9,18.3-8.3,27.6c7.1,7.9,21.4,17.5,46.4,10.8
		c0,0,2.1-39.4,7.4-51.5C321.9,197.8,293.3,191.9,289.9,191.3z"/>
	<path class="st0" d="M272.1,215.2c-11.7-3-22.2-8.7-31.2-16.1c-0.7,1.5-1.2,3-1.7,4.5c7.6,6.7,17.5,12.2,30,13.8
		c0,0-1.2,4.2,2.4,7.6c2.7,2.6,12.9-0.8,15.9-7.3c-1.6,1.3-3.3,2.3-5.2,3.1C275.3,224,274.5,215.2,272.1,215.2z"/>
	<path class="st0" d="M246.9,189.9c-2.4,2.7-4.5,5.9-5.9,9.2c0.4,0.3,0.8,0.6,1.1,0.9c1.2-3.6,2.8-6.9,4.9-10
		C247,190,247,189.9,246.9,189.9z"/>
	<path class="st1" d="M287.9,210.9c-3.7-10.7-19.9-2.4-19.9-2.4s-11.5-7.5-21-18.4c-2.2,3.1-3.8,6.4-4.9,10
		c8.7,6.9,18.8,12.3,30,15.2c2.4,0,3.2,8.7,10.3,5.6c1.9-0.8,3.6-1.9,5.2-3.1C288.5,215.7,288.8,213.4,287.9,210.9z"/>
	<path class="st3" d="M311.9,154c4.3,0,8.5,0.4,12.8,0.1c-0.2-0.6-0.4-1.1-0.6-1.7c0,0,6.6-4.4,5-13.5c-0.1-0.7-0.3-1.3-0.5-1.8
		C329.5,145.9,320.7,154,311.9,154z"/>
	<path class="st4" d="M311.9,154c8.8,0,17.6-8.1,16.6-16.9c-2.6-6.1-11.6,0.8-11.6,0.8l-5-12.1c0,0-28.3-2.2-43.8,11.5
		c0,0,0.8,0.7,2.1,2c0.9-0.2,1.8-0.3,2.7-0.4c1.6,0,7.9,4,9.5,7.9c1.6,4,1.6,8.7,5.6,11.1c6.4,3.2,12.7-0.8,18.3-4
		c-4,4.8-7.9,7.9-13.5,9.5c2.4,8.7-0.8,17.5,1.6,25.4c3.5,9.3,13.8,11.8,24.1,13.4c0.5-0.1,1-0.2,1.5-0.3c0,0,12.8-25.3,4.6-48
		C320.4,154.4,316.1,154,311.9,154z"/>
	<path class="st3" d="M294.4,189c-2.4-7.9,0.8-16.7-1.6-25.4c5.6-1.6,9.5-4.8,13.5-9.5c-5.6,3.2-11.9,7.2-18.3,4
		c-4-2.4-4-7.2-5.6-11.1c-1.6-4-7.9-7.9-9.5-7.9c-0.9,0.1-1.8,0.2-2.7,0.4c7,6.8,28.1,29.7,19.4,51.9c0,0,7.6,15.2,28.9,11.2
		C308.2,200.8,297.9,198.3,294.4,189z"/>
</g>
<g>
	<path class="st0" d="M53.7,131.1c-0.1,0.4-0.3,0.8-0.4,1.2c-9.2-4.7-19.3-10.7-25.8-17.2c0,0-3,1.7-5.6,0c-1.3-0.9-4.7-2.3-8.6-3.5
		c4.7-0.3,9.4-0.4,13.7,1.9C36.2,119.3,44.5,126.4,53.7,131.1z"/>
	<path class="st1" d="M16.2,105.2c6.2,0.4,7.4,1.6,7.5,1.8l0,0l0,0c-0.1-0.2-0.6-1.2,1.3-2.5c1.2-0.8,1.4-2.3,1.3-3.4s0.5-2.2,1.4-3
		c1.2-0.9,2.7-1.5,2.8,0.3c0.2,3.2-0.5,6.2-0.5,6.2s2.2,1.8,1,4.4c-0.4,0.9,3.6,3,8.2,5.6c2.2,1.3,3.1,2.3,6.6,4.2
		c3.4,1.8,7.6,3.4,12.2,6c-3.6,1.2-3.2,3-4.4,6.3c-9.3-4.7-17.5-11.8-26.7-17.4c-4.3-2.3-9-2.3-13.7-1.9c-3.8-1.1-8-1.9-11.5-1.6
		C-5.1,110.7,9.4,104.8,16.2,105.2z"/>
	<g>
		<path class="st2" d="M43.5,123c13.6,9.4,16.7,16.5,31.4,24.2c22.9-6.7,47.1-13.5,67.8-26.2c-0.3,1-1,2.2-2.1,3.4
			c-11.2,12-61.4,28.2-61.4,28.2c-16.8-4.9-25.6-17.3-38.6-26.9C41.6,124.9,42.6,124,43.5,123z"/>
		<path class="st5" d="M43.5,123c1.2-1.3,2.3-2.7,3.3-4.2c15,7.3,31.3,16.3,31.3,16.3c21.4-16.1,35.7-23.7,41.4-25.3
			c0,0,26.1,2.1,23.2,11.2c-20.7,12.7-44.9,19.5-67.8,26.2C60.2,139.5,57.1,132.4,43.5,123z"/>
		<path class="st8" d="M43.2,116.9c1.1,0.6,2.3,1.2,3.6,1.8c-1,1.5-2.1,2.9-3.3,4.2c-1-0.7-2.1-1.4-3.1-2.2
			C41.6,119.7,42.6,118.5,43.2,116.9z"/>
		<path class="st9" d="M43.5,123c-0.9,1-1.9,1.9-2.9,2.7c-1.2-0.9-2.4-1.8-3.5-2.6c1.2-0.6,2.4-1.3,3.3-2.2
			C41.4,121.6,42.5,122.3,43.5,123z"/>
		<path class="st1" d="M39.3,114.6c1,0.7,2.3,1.5,3.9,2.4c-0.6,1.5-1.6,2.8-2.8,3.9c-3.2-2.3-6.4-4.7-9.5-7.1
			C33.9,113.7,36.6,114.4,39.3,114.6z"/>
		<path class="st1" d="M149.1,98c-0.5,4.5-1.8,9.8-5,13.1c-6.5,6.6,7.3,8,9,0c1.1-5.2,1.5-10.8,1.7-15C152.9,96.9,151,97.5,149.1,98
			z"/>
		<path class="st0" d="M154.9,90.9c0.2-3.3-5.7-0.9-5.7-0.9s0.3,3.6-0.2,8.1c1.9-0.5,3.8-1.1,5.7-1.9
			C154.8,93.9,154.9,92.1,154.9,90.9z"/>
		<path class="st0" d="M166.8,78.1c0,0-1-6.8-17.6-7.6l-2,2.9c2.4,3.9,7,6.3,9.2,10.2c2.2,4,0,7.4-3.4,9.5c1.7-0.1,3.6-0.6,5.8-1.4
			C169.4,87.4,166.8,78.1,166.8,78.1z"/>
		<path class="st1" d="M156.5,83.6c-2.2-3.9-6.8-6.3-9.2-10.2l-4.5,6.7l2,1.1c0,0-2.5,8.2-2,8.4c0.4,0.1,3.6,4,10.3,3.5
			C156.5,91,158.7,87.7,156.5,83.6z"/>
		<path class="st2" d="M159.2,83.3c0,0-15.6-12.8-18.6-26.3c0,0,23.8,7.6,34.4,24.4c0,0-4.1,10.7-17.8,10.9l3-5.7c0,0,2.7,0,2.7-3
			C162.8,80.7,159.2,83.3,159.2,83.3z"/>
		<path class="st0" d="M178.6,201.6c3.2,3.2-1.9,4.4-4.4,5c-3,0.5-5.5-0.1-7.7-1.2c3.3,6.3,10.1,7.6,15.7,2.9
			c7.6-6.3,1.5-11.1-3.2-12.4c0,0,4.2-2.1,2.5-3.8s-1.7-1.7-1.7-1.7s3.1-1.4,7.9-3.8c-0.7-1.1-1.5-2.2-2.5-3.1
			c-2.3,1.2-4.5,2.3-6.7,3.6C172.9,190.2,174.2,197.2,178.6,201.6z"/>
		<path class="st1" d="M183,181.4c-1.6-1-3.4-1.8-5.2-2c-7.7,6.9-13.3,13.4-13.3,17.5c0.1,3.4,0.8,6.2,1.9,8.4
			c2.2,1.1,4.7,1.7,7.7,1.2c2.5-0.6,7.6-1.9,4.4-5c-4.4-4.4-5.7-11.4,0-14.5c2.2-1.2,4.5-2.4,6.7-3.6
			C184.6,182.8,183.8,182.1,183,181.4z"/>
		<path class="st8" d="M182.1,175.7c-1.5,1.3-3,2.5-4.4,3.8c1.8,0.2,3.6,1,5.2,2c0.8,0.7,1.6,1.4,2.3,2.1c1.4-0.7,2.8-1.4,4.2-2.1
			C187.6,178.8,185.2,176.6,182.1,175.7z"/>
		<path class="st9" d="M187.8,186.7c1.2-0.6,2.5-1.2,3.9-1.9c-0.7-1.2-1.4-2.3-2.1-3.4c-1.4,0.7-2.8,1.4-4.2,2.1
			C186.3,184.5,187.1,185.5,187.8,186.7z"/>
		<path class="st10" d="M149.6,122.6c-2.8,0-5.5,0.2-8.3,0.5c0.1-0.4,0.1-0.7,0.2-1.1C144.2,122,146.9,122.2,149.6,122.6z"/>
		<path class="st5" d="M150.8,105.1c8,0.4,15.5,1.7,22.6,3.5c24.7,8.5,47.8,21.9,61.9,43.8c-12.4,12.9-29.4,20.7-45.8,29
			c-1.9-2.6-4.3-4.8-7.4-5.7c16-13.4,37.3-27,37.3-27s-17-11.4-47.3-22.5c-7.1-2.6-14.7-3.6-22.4-3.6c-2.7-0.4-5.4-0.6-8.1-0.6
			c1-5.4,1.8-10.9,2.7-16.3C148.4,105.2,150.8,105.1,150.8,105.1z"/>
		<path class="st2" d="M145.1,231.9c7.1-0.7,14.9-1.1,22.2-2.5c-1.9-6.8-3.9-13-6.2-18.3c-22-52-34.6-4.9-34.6-4.9s2.2,14,6.3,34.8
			C137.2,236.7,141.5,232.3,145.1,231.9z"/>
		<path class="st5" d="M167.4,229.4c-7.4,1.4-15.1,1.7-22.2,2.5c-3.6,0.5-8,4.9-12.2,9.2c9,45.9,27.7,124.8,53.8,157.9
			C186.8,399,183.9,289.4,167.4,229.4z"/>
		<path class="st2" d="M124.6,185.4c-10,2.6-21,12.7-21,12.7s-3.6,1.8-7.9,20.6c6.4,5.3,13,9.9,21.8,11.3
			C118.5,214.8,121.7,200.1,124.6,185.4z"/>
		<path class="st5" d="M133.4,185.8c-2.6-1.3-5.6-1.2-8.8-0.4c-2.9,14.6-6,29.4-7.2,44.6c-8.8-1.3-15.4-6-21.8-11.3
			c-5.4,23.5-12,73.7-14.1,180.3c0,0,39.2-65.3,44.8-162.5c0,0,6.3,1.4,14.3-12C148.6,211.1,143.9,191.2,133.4,185.8z"/>
		<path class="st8" d="M135,106.8c0,0-22.3,80.9-24,97.6c0,0,14.4,11.3,37.7,6.7c0,0,1.5-88.1,12.7-104.9c-0.9-0.2-8-1.2-10.5-1.1
			C148.1,105.2,138.5,106,135,106.8z"/>
		<path class="st11" d="M149,111.3l0.1-2.1L122,170.3l6.6,22.9c0.4-14.2,4.2-28.4,8.4-42.1C141.2,137.8,146.4,124.9,149,111.3z"/>
		<path class="st12" d="M136.9,151.1c-4.2,13.7-8,27.9-8.4,42.1l0.2,0.6l18.5-20.8l1.7-61.7C146.4,124.9,141.2,137.8,136.9,151.1z"
			/>
		<path class="st5" d="M119.5,109.7c0,0-21.7,80.5-24.8,105.7c0,0,12,6.3,20.6,9c0,0,14.1-95.4,28.3-118.9c-3.6,0.3-7.7,1-12.2,1.7
			C127,108.1,123.1,108.8,119.5,109.7z"/>
		<path class="st5" d="M157.9,105.7c0,0-20.6,56.8-22.2,117.4c0,0,24,8.8,37.5-2.5c0,0-15.1-23-8.2-57.1
			c6.9-34.1,15.6-52.7,15.6-52.7C175.6,108.7,159.8,105.6,157.9,105.7z"/>
		<polygon class="st2" points="182.9,393.7 216.4,399 179.2,399 		"/>
		<path class="st2" d="M81.5,396.7l1.3-0.1c6.9-12.5,38.5-73.7,43.4-160.2C126.2,236.5,97.9,370.1,81.5,396.7L81.5,396.7z"/>
		<polygon class="st2" points="84.4,393.7 49,399 87.7,399 		"/>
		<polygon class="st11" points="150.1,106 146.3,108.3 148.5,112.4 152.5,108.7 		"/>
		<g>
			<path class="st13" d="M195.2,179.4c0.4,0.2,0.6,0.7,0.5,1.1c-0.2,0.4-0.7,0.6-1.1,0.5c-0.4-0.2-0.6-0.7-0.5-1.1
				C194.3,179.4,194.8,179.2,195.2,179.4z"/>
			<path class="st13" d="M201.2,176.7c0.4,0.2,0.6,0.7,0.5,1.1c-0.2,0.4-0.7,0.6-1.1,0.5c-0.4-0.2-0.6-0.7-0.5-1.1
				C200.2,176.7,200.7,176.5,201.2,176.7z"/>
			<path class="st13" d="M198.2,178c0.4,0.2,0.6,0.7,0.5,1.1c-0.2,0.4-0.7,0.6-1.1,0.5c-0.4-0.2-0.6-0.7-0.5-1.1
				C197.3,178,197.8,177.8,198.2,178z"/>
		</g>
		<path class="st9" d="M128.6,200.7c0,0.3-0.3,0.6-0.6,0.6s-0.6-0.3-0.6-0.6s0.3-0.6,0.6-0.6C128.3,200.1,128.6,200.4,128.6,200.7z"
			/>
		<path class="st8" d="M189.4,184.2c0,0.3-0.3,0.6-0.6,0.6s-0.6-0.3-0.6-0.6s0.3-0.6,0.6-0.6C189.1,183.6,189.4,183.8,189.4,184.2z"
			/>
		<path class="st2" d="M144.1,189.5c0,1-0.8,1.8-1.8,1.8s-1.8-0.8-1.8-1.8s0.8-1.8,1.8-1.8C143.2,187.7,144.1,188.5,144.1,189.5z"/>
		<path class="st2" d="M137.4,106.4l-11.8,14.9l4.2,3.6l-13.2,7.9l6.2,47.7l0,0c5.4-28.3,13.1-62.2,20.8-74.9
			C141.7,105.8,139.6,106.1,137.4,106.4z"/>
		<path class="st2" d="M139.5,181.2l27.6-47.3l-8.1-8.4l5.5-1.5l-2.6-17.7c-2-0.4-3.5-0.6-4-0.5
			C157.9,105.7,145.9,138.7,139.5,181.2z"/>
		<g>
			<path class="st5" d="M120.9,134.5c0.1,0,0.1,0,0.2,0l3.9-1.7c0.2-0.1,0.2-0.3,0.2-0.4c-0.1-0.2-0.3-0.2-0.4-0.2l-3.9,1.7
				c-0.2,0.1-0.2,0.3-0.2,0.4C120.8,134.4,120.8,134.5,120.9,134.5z"/>
		</g>
		<g>
			<path class="st2" d="M118.8,187.6L118.8,187.6l-4.6-1.2c-0.2,0-0.3-0.2-0.2-0.4c0-0.2,0.2-0.3,0.4-0.2l4.5,1.2
				c0.2,0,0.3,0.2,0.2,0.4C119.1,187.5,119,187.6,118.8,187.6z"/>
		</g>
		<g>
			<path class="st2" d="M107.9,192.8c-0.1,0-0.2,0-0.3-0.1l-6.8-3.5c-0.3-0.2-0.4-0.5-0.3-0.9c0.2-0.3,0.5-0.4,0.9-0.3l6.8,3.5
				c0.3,0.2,0.4,0.5,0.3,0.8C108.4,192.7,108.2,192.8,107.9,192.8z"/>
		</g>
		<g>
			<path class="st2" d="M148.1,197.9c-0.3,0-0.6-0.2-0.6-0.5c-0.1-0.3,0.2-0.7,0.5-0.7l14-2.5c0.3-0.1,0.7,0.2,0.7,0.5
				c0.1,0.3-0.2,0.7-0.5,0.7L148.1,197.9C148.2,197.9,148.2,197.9,148.1,197.9z"/>
		</g>
		<path class="st2" d="M173.4,108.6c24.7,8.5,47.8,21.9,61.9,43.8c-12.4,12.9-29.4,20.7-45.8,29c0.8,1.1,1.5,2.2,2.1,3.4
			c15.5-7.8,41.8-22.1,49.8-33.4C241.4,151.3,215.5,119.6,173.4,108.6z"/>
	</g>
</g>
</svg>
